<svg width="32" height="22" viewBox="0 0 32 22" fill="none" xmlns="http://www.w3.org/2000/svg">
<path d="M10.6746 11C10.6746 5.10445 15.4485 0.325165 21.3373 0.325165C27.2262 0.325165 32 5.10445 32 11C32 16.8956 27.2262 21.6748 21.3373 21.6748C15.4485 21.6748 10.6746 16.8956 10.6746 11Z" fill="#7445FB"/>
<path d="M0 11C0 5.10445 4.77384 0.325165 10.6627 0.325165C12.0767 0.325165 13.4264 0.600719 14.6612 1.10112C10.7535 2.6847 7.99701 6.52007 7.99701 11C7.99701 15.4799 10.7535 19.3153 14.6612 20.8989C13.4264 21.3993 12.0767 21.6748 10.6627 21.6748C4.77384 21.6748 0 16.8956 0 11Z" fill="#4592FB"/>
</svg>
