<svg width="16" height="13" viewBox="0 0 16 13" fill="none" xmlns="http://www.w3.org/2000/svg">
<path d="M0.828125 1.71851C0.828125 1.16622 1.27584 0.718506 1.82812 0.718506H14.1719C14.7242 0.718506 15.1719 1.16622 15.1719 1.71851C15.1719 2.27079 14.7242 2.71851 14.1719 2.71851H1.82812C1.27584 2.71851 0.828125 2.27079 0.828125 1.71851Z" fill="#9896A1"/>
<path d="M0.828125 6.71851C0.828125 6.16622 1.27584 5.71851 1.82812 5.71851H14.1719C14.7242 5.71851 15.1719 6.16622 15.1719 6.71851C15.1719 7.27079 14.7242 7.71851 14.1719 7.71851H1.82812C1.27584 7.71851 0.828125 7.27079 0.828125 6.71851Z" fill="#9896A1"/>
<path d="M1.82812 10.7185C1.27584 10.7185 0.828125 11.1662 0.828125 11.7185C0.828125 12.2708 1.27584 12.7185 1.82812 12.7185H14.1719C14.7242 12.7185 15.1719 12.2708 15.1719 11.7185C15.1719 11.1662 14.7242 10.7185 14.1719 10.7185H1.82812Z" fill="#9896A1"/>
</svg>
