<svg width="18" height="18" viewBox="0 0 18 18" fill="none" xmlns="http://www.w3.org/2000/svg">
<path d="M18 9C18 13.9706 13.9706 18 9 18C4.02944 18 0 13.9706 0 9C0 4.02944 4.02944 0 9 0C13.9706 0 18 4.02944 18 9Z" fill="#2DC78F"/>
<path d="M11.6116 6.03006C11.5313 5.99463 11.4448 5.97541 11.3571 5.9735L6.64301 5.9735C6.55511 5.9735 6.46806 5.99081 6.38685 6.02445C6.30563 6.05809 6.23184 6.1074 6.16968 6.16956C6.04414 6.29509 5.97362 6.46536 5.97362 6.64289C5.97362 6.7308 5.99093 6.81784 6.02457 6.89906C6.05821 6.98027 6.10752 7.05406 6.16968 7.11622C6.29521 7.24176 6.46548 7.31228 6.64301 7.31228L9.74957 7.30757L6.17161 10.8855C6.04658 11.0106 5.97634 11.1801 5.97634 11.3569C5.97634 11.5337 6.04658 11.7033 6.17161 11.8283C6.29663 11.9534 6.4662 12.0236 6.64301 12.0236C6.81982 12.0236 6.98939 11.9534 7.11442 11.8283L10.6924 8.25038L10.6877 11.3569C10.6873 11.4449 10.7044 11.5321 10.7379 11.6135C10.7714 11.6949 10.8207 11.7688 10.8829 11.8311C10.9451 11.8933 11.0191 11.9426 11.1005 11.9761C11.1818 12.0096 11.269 12.0267 11.3571 12.0263C11.4451 12.0267 11.5323 12.0096 11.6136 11.9761C11.695 11.9426 11.769 11.8933 11.8312 11.8311C11.8934 11.7688 11.9427 11.6949 11.9762 11.6135C12.0097 11.5321 12.0268 11.4449 12.0265 11.3569V6.64289C12.0245 6.55514 12.0053 6.46863 11.9699 6.38833C11.9023 6.22641 11.7735 6.09768 11.6116 6.03006Z" fill="white"/>
</svg>
