<svg width="15" height="16" viewBox="0 0 15 16" fill="none" xmlns="http://www.w3.org/2000/svg">
<path d="M7.50001 14.6667C11.1819 14.6667 14.1667 11.6819 14.1667 8C14.1667 4.3181 11.1819 1.33333 7.50001 1.33333C3.81811 1.33333 0.833344 4.3181 0.833344 8C0.833344 11.6819 3.81811 14.6667 7.50001 14.6667Z" fill="#FBDBDB"/>
<path d="M9.50013 6.00003V10H5.50013" fill="#FBDBDB"/>
<path d="M9.50013 6.00003V10M9.50013 10H5.50013M9.50013 10L5.50013 5.99996M14.1667 8C14.1667 11.6819 11.1819 14.6667 7.50001 14.6667C3.81811 14.6667 0.833344 11.6819 0.833344 8C0.833344 4.3181 3.81811 1.33333 7.50001 1.33333C11.1819 1.33333 14.1667 4.3181 14.1667 8Z" stroke="#EA4D4D" stroke-width="1.5" stroke-linecap="round" stroke-linejoin="round"/>
</svg>
