<svg width="16" height="16" viewBox="0 0 16 16" fill="none" xmlns="http://www.w3.org/2000/svg">
<path d="M8.15922 14.6601C11.8411 14.6601 14.8259 11.6753 14.8259 7.99345C14.8259 4.31155 11.8411 1.32678 8.15922 1.32678C4.47732 1.32678 1.49255 4.31155 1.49255 7.99345C1.49255 11.6753 4.47732 14.6601 8.15922 14.6601Z" fill="#D5F4E9"/>
<path d="M10.1593 9.99348V5.99348H6.15934" fill="#D5F4E9"/>
<path d="M10.1593 9.99348V5.99348M10.1593 5.99348H6.15934M10.1593 5.99348L6.15935 9.99341M14.8259 7.99345C14.8259 11.6753 11.8411 14.6601 8.15922 14.6601C4.47732 14.6601 1.49255 11.6753 1.49255 7.99345C1.49255 4.31155 4.47732 1.32678 8.15922 1.32678C11.8411 1.32678 14.8259 4.31155 14.8259 7.99345Z" stroke="#2DC78F" stroke-width="1.5" stroke-linecap="round" stroke-linejoin="round"/>
</svg>
