<svg width="32" height="32" viewBox="0 0 32 32" fill="none" xmlns="http://www.w3.org/2000/svg">
<path d="M32 16C32 24.8366 24.8366 32 16 32C7.16344 32 0 24.8366 0 16C0 7.16344 7.16344 0 16 0C24.8366 0 32 7.16344 32 16Z" fill="#F7931A"/>
<path fill-rule="evenodd" clip-rule="evenodd" d="M22.6249 13.9097C22.9578 11.6681 21.2634 10.4631 18.9465 9.65917L19.6981 6.62261L17.8631 6.16197L17.1314 9.11851C16.649 8.99743 16.1536 8.88319 15.6612 8.77L16.3982 5.79398L14.5642 5.33333L13.8122 8.36884C13.4129 8.27724 13.0209 8.18669 12.6404 8.0914L12.6425 8.08193L10.1119 7.44545L9.62374 9.41964C9.62374 9.41964 10.9852 9.73393 10.9565 9.75341C11.6997 9.9403 11.834 10.4357 11.8115 10.8284L10.9554 14.2877C11.0066 14.3009 11.073 14.3198 11.1462 14.3493L11.084 14.3337C11.0415 14.3229 10.9973 14.3118 10.9523 14.3009L9.75231 19.1469C9.66137 19.3743 9.43089 19.7154 8.91139 19.5859C8.92968 19.6128 7.57762 19.2506 7.57762 19.2506L6.66667 21.3664L9.05459 21.966C9.32126 22.0333 9.58473 22.1025 9.84546 22.171C10.0191 22.2166 10.1915 22.2619 10.3628 22.3061L9.60336 25.3774L11.4362 25.838L12.1883 22.7994C12.689 22.9362 13.1751 23.0626 13.6507 23.1816L12.9012 26.206L14.7362 26.6667L15.4956 23.6011C18.6246 24.1976 20.9775 23.957 21.9679 21.1063C22.766 18.811 21.9282 17.487 20.2819 16.6236C21.4808 16.3451 22.3839 15.5507 22.6249 13.9097ZM18.4323 19.8318C17.912 21.9376 14.6396 21.067 13.1424 20.6687C13.0077 20.6328 12.8873 20.6008 12.7846 20.5751L13.7923 16.5062C13.9173 16.5376 14.0701 16.5721 14.2431 16.6113C15.7917 16.9613 18.9654 17.6786 18.4323 19.8318ZM14.5543 14.723C15.8026 15.0586 18.5255 15.7905 18.9998 13.8766C19.4842 11.9189 16.8377 11.3287 15.5452 11.0405C15.3998 11.0081 15.2716 10.9795 15.1668 10.9532L14.2533 14.6436C14.3396 14.6653 14.4408 14.6925 14.5543 14.723Z" fill="white"/>
</svg>
